<svg width="1200" height="900" viewBox="0 0 1200 900" xmlns="http://www.w3.org/2000/svg">
  <defs>
    <linearGradient id="bg" x1="0" y1="0" x2="1" y2="1">
      <stop offset="0%" stop-color="#f8f6fc"/>
      <stop offset="100%" stop-color="#ece8f4"/>
    </linearGradient>
    <linearGradient id="cup" x1="0" y1="0" x2="0" y2="1">
      <stop offset="0%" stop-color="#ffffff"/>
      <stop offset="100%" stop-color="#f1eef8"/>
    </linearGradient>
  </defs>
  <rect width="1200" height="900" fill="url(#bg)"/>
  <circle cx="930" cy="170" r="130" fill="#8da64e" fill-opacity="0.12"/>
  <circle cx="240" cy="740" r="170" fill="#7b51a0" fill-opacity="0.1"/>
  <ellipse cx="620" cy="760" rx="260" ry="60" fill="#472868" fill-opacity="0.12"/>
  <path d="M420 280h400l-55 400a70 70 0 0 1-69 60H544a70 70 0 0 1-69-60z" fill="url(#cup)" stroke="#d8d1e6" stroke-width="4"/>
  <ellipse cx="620" cy="280" rx="200" ry="34" fill="#7b51a0"/>
  <path d="M488 280c20-60 82-98 132-80 34 12 56 48 66 78" fill="none" stroke="#f9f3ff" stroke-width="14" stroke-linecap="round"/>
  <circle cx="555" cy="220" r="36" fill="#f0b9ce"/>
  <circle cx="622" cy="206" r="42" fill="#ffd1df"/>
  <circle cx="690" cy="228" r="34" fill="#f6bdd3"/>
  <circle cx="520" cy="684" r="22" fill="#ed4f6f"/>
  <circle cx="610" cy="706" r="26" fill="#8f2e4d"/>
  <circle cx="680" cy="676" r="20" fill="#ed4f6f"/>
  <text x="620" y="520" text-anchor="middle" font-family="Arial, sans-serif" font-size="78" font-weight="700" fill="#472868">YoBerry</text>
  <text x="620" y="570" text-anchor="middle" font-family="Arial, sans-serif" font-size="34" font-weight="700" fill="#8da64e">frozen yogurt</text>
</svg>
